<svg width="50" height="50" viewBox="0 0 50 50" fill="none" xmlns="http://www.w3.org/2000/svg">
<path d="M24.7775 4.55806C24.3417 4.68257 24.1549 5.11837 24.1549 5.94328V6.76819H23.0965C21.8514 6.76819 21.3533 7.03279 21.3533 7.68649C21.3533 8.35575 21.6179 8.48027 22.9409 8.48027H24.1549V10.0056V11.5309L23.579 11.7332C22.7697 12.0289 21.509 13.3519 20.9487 14.4725C20.544 15.3286 20.4973 15.5465 20.4973 16.994C20.4973 17.8811 20.4817 18.5971 20.4662 18.5971C20.435 18.5971 20.0148 18.3325 19.5323 18.0212C14.8941 15.064 9.50889 15.3908 6.89409 18.815C4.6217 21.7878 4.38823 25.1185 6.22482 28.1691C6.92522 29.3365 8.79294 31.2042 10.2715 32.2003C11.361 32.9474 11.4077 32.9629 11.6256 32.6672C11.7502 32.5116 11.8435 32.3404 11.8435 32.2937C11.8435 32.247 11.2365 31.8267 10.505 31.3598C7.20537 29.2275 5.35322 26.0368 5.78902 23.1574C6.06918 21.352 6.56724 20.2936 7.6723 19.1885C10.4583 16.4025 15.5478 16.6048 20.2638 19.7177C21.6179 20.6204 23.4078 22.3325 24.3106 23.6088L25.0421 24.6516L25.509 23.9201C26.3184 22.6282 27.7036 21.1341 28.9954 20.1535C33.8982 16.4648 39.2056 16.2313 42.5675 19.5621C43.5792 20.5737 43.9839 21.352 44.2173 22.7683C44.7309 25.9434 42.5364 29.4765 38.443 32.0291C37.6025 32.5583 37.4002 32.7606 37.3846 33.0875C37.369 33.9902 36.8554 34.0524 35.1278 33.3209C33.5713 32.6517 31.688 32.1069 29.6802 31.7334C27.5479 31.3443 21.4934 31.3287 19.33 31.7178C17.4156 32.0446 15.3766 32.6361 13.8046 33.3209C12.4661 33.8812 12.0303 33.9591 11.7346 33.6633C11.5945 33.5233 11.5478 33.8345 11.5478 35.0641V36.6673L11.9836 36.3404C12.6218 35.8735 14.8941 35.0019 16.6218 34.5661C21.2288 33.4143 27.1744 33.3832 31.9838 34.4882C33.6491 34.8774 36.404 35.9046 36.9799 36.356L37.3846 36.6673V35.1419V33.6166L38.8476 32.6517C41.5714 30.8306 43.7037 28.496 44.5442 26.3792C45.0889 25.0407 45.1512 23.0952 44.6998 21.6944C43.5636 18.1924 39.6881 15.7332 35.6725 16.0134C33.6336 16.1535 32.762 16.4336 29.7581 17.9278C29.7114 17.9589 29.6802 17.4609 29.6647 16.8383C29.6647 15.9044 29.5713 15.5153 29.1822 14.6593C28.5752 13.383 27.4701 12.169 26.5518 11.7955L25.867 11.5153V9.99001V8.48027H27.0966C28.2016 8.48027 28.3728 8.44914 28.5752 8.13785C28.902 7.67092 28.8865 7.45302 28.5129 7.07948C28.2639 6.83045 27.9993 6.76819 27.0343 6.76819H25.867V5.8499C25.867 5.30515 25.7892 4.88491 25.6802 4.79152C25.3845 4.55806 25.0421 4.46467 24.7775 4.55806Z" fill="black"/>
<path d="M11.1276 19.1418C9.68012 19.5309 8.68401 20.3558 7.92136 21.7722C7.6412 22.3014 7.57894 22.6594 7.57894 23.9668C7.57894 25.4454 7.61007 25.5699 8.10813 26.5037C8.76183 27.7178 10.614 29.4921 12.0926 30.3481C12.684 30.6905 13.2755 31.0952 13.4 31.2353C13.6023 31.4688 13.6802 31.4688 14.1782 31.2664C15.9992 30.4882 20.6374 29.6477 23.0343 29.6477H24.2328L24.1861 28.2158C24.1394 27.0329 24.0616 26.6283 23.7347 25.9901C21.4312 21.4298 15.1899 18.0523 11.1276 19.1418Z" fill="black"/>
<path d="M34.9721 19.1418C31.7659 19.8422 28.3262 22.4103 26.6452 25.3676C25.9759 26.566 25.9448 26.6594 25.8981 28.1069L25.8359 29.6011L27.2678 29.71C29.8359 29.8968 32.8087 30.5349 34.8787 31.3443L35.7348 31.6555L36.5752 31.1731C38.9255 29.8345 40.9955 27.889 41.9138 26.1613C42.334 25.3676 42.443 25.0096 42.4897 23.9356C42.5675 22.4103 42.2718 21.6166 41.1978 20.636C39.5636 19.1418 37.3846 18.6126 34.9721 19.1418Z" fill="black"/>
<path d="M21.1977 35.5155C18.5362 35.7801 15.6257 36.496 13.7424 37.3676C12.5284 37.928 12.0303 38.0058 11.7346 37.7101C11.5945 37.57 11.5478 37.8813 11.5478 39.1109V40.6828L12.1082 40.3093C13.3844 39.4533 16.8397 38.3949 19.8125 37.9747C21.9448 37.6789 26.9876 37.6789 29.12 37.9747C32.0616 38.3949 35.5636 39.4533 36.8399 40.3093L37.3846 40.6828V39.033C37.3846 37.6011 37.3535 37.4143 37.1823 37.6478C36.9021 38.0213 36.4819 37.9435 34.583 37.1653C31.6569 35.9513 28.3262 35.391 24.2639 35.4377C22.8787 35.4377 21.4934 35.4844 21.1977 35.5155Z" fill="black"/>
<path d="M20.0459 39.7023C18.0537 39.9669 15.6724 40.5895 14.2871 41.1809C13.6801 41.4455 12.9486 41.7568 12.6529 41.8657L12.1081 42.0681L13.4311 42.6906C19.828 45.7724 29.1044 45.7724 35.4857 42.6751L36.7931 42.0525L36.264 41.8657C35.9838 41.7568 35.2523 41.4611 34.6453 41.1965C33.1667 40.5428 30.8943 39.9669 28.7153 39.6867C26.5363 39.4066 22.1782 39.4066 20.0459 39.7023Z" fill="black"/>
</svg>
