<svg width="50" height="50" viewBox="0 0 50 50" fill="none" xmlns="http://www.w3.org/2000/svg">
<path d="M24.3261 5.74378C23.1188 6.0386 22.3045 7.03538 22.2203 8.34101C22.136 9.57645 22.6414 10.475 23.8067 11.1488C24.0313 11.2892 23.9751 11.6823 22.8801 17.0172C22.2343 20.1619 21.6727 22.7311 21.6306 22.7311C21.5885 22.7311 20.6619 20.3444 19.5528 17.4383L17.5452 12.1456L18.0647 11.6542C18.7105 11.0225 18.9632 10.4328 18.9632 9.53433C18.9632 6.57209 14.9761 5.64551 13.6143 8.29889C13.3335 8.86046 13.2633 9.98358 13.4739 10.5592C13.6985 11.1348 14.4988 11.9491 15.0884 12.1877L15.6359 12.4264L15.5938 15.5711C15.5798 17.312 15.5236 19.825 15.4675 21.1587L15.3832 23.6015L12.5333 19.2213L9.69739 14.8411L10.0343 14.434C11.1855 13.0581 10.7503 10.9944 9.12179 10.1801C7.84423 9.54837 6.5386 9.80108 5.65413 10.868C4.32042 12.4966 5.12065 14.8973 7.19843 15.4448L7.84423 15.6273L9.05159 21.8045C9.72547 25.216 10.3432 28.2344 10.4134 28.5292C10.5117 28.8802 10.8767 29.4137 11.5084 30.0735C12.0279 30.6351 12.7298 31.5055 13.0527 32.039C13.6143 32.9234 13.6424 33.0217 13.5581 33.6816C13.4879 34.2431 13.3335 34.552 12.8421 35.1135C12.5052 35.5066 12.1262 36.1244 11.9998 36.4753C11.8875 36.8263 11.6488 37.3879 11.4804 37.7248C10.9188 38.8339 11.2277 39.943 12.3227 40.7011C13.2633 41.3469 17.4891 42.3998 20.8585 42.821C22.6695 43.0597 27.3305 43.0597 29.1415 42.821C32.1319 42.4419 36.4419 41.4311 37.3544 40.8836C38.3512 40.294 38.6881 38.876 38.0844 37.8371C37.916 37.5563 37.7756 37.0931 37.7756 36.8263C37.7756 36.2086 37.5088 35.5909 36.9613 34.903C36.6805 34.552 36.5121 34.1448 36.4419 33.6816C36.3576 33.0217 36.3857 32.9234 36.9473 32.039C37.2702 31.5055 37.9721 30.6351 38.4916 30.0735C39.1233 29.4137 39.4883 28.8802 39.5866 28.5292C39.6568 28.2344 40.2745 25.216 40.9484 21.8045L42.1558 15.6273L42.8016 15.4448C44.8794 14.8973 45.6796 12.4966 44.3459 10.868C43.4614 9.80108 42.1558 9.54837 40.8782 10.1801C39.2497 10.9944 38.8145 13.0581 39.9657 14.434L40.3026 14.8411L37.4667 19.2213L34.6168 23.6015L34.5325 21.1587C34.4764 19.825 34.4202 17.312 34.4062 15.5711L34.3641 12.4264L34.9116 12.1877C35.5012 11.9491 36.3015 11.1348 36.5261 10.5592C36.5963 10.3767 36.6524 9.89935 36.6524 9.52029C36.6524 6.55805 32.6653 5.65955 31.3036 8.29889C30.9947 8.91661 30.9526 10.0397 31.2334 10.6996C31.3316 10.9523 31.6545 11.3735 31.9353 11.6542L32.4548 12.1456L30.4472 17.4383C29.3381 20.3444 28.4115 22.7311 28.3694 22.7311C28.3273 22.7311 27.7657 20.1619 27.1199 17.0172C26.0249 11.6823 25.9687 11.2892 26.1933 11.1488C27.2463 10.5311 27.8078 9.63261 27.8078 8.5516C27.8078 7.69521 27.5692 7.07749 27.0216 6.54401C26.2916 5.81398 25.2667 5.50512 24.3261 5.74378ZM28.0184 27.729C30.5033 27.8694 33.6902 28.5011 36.4278 29.3716C37.4667 29.7085 37.8738 30.0876 37.7054 30.593C37.5369 31.1264 37.0596 31.2247 36.0768 30.8878C34.6308 30.4245 32.6513 29.9472 30.6858 29.5962C29.0573 29.3014 28.4255 29.2592 25 29.2592C21.5745 29.2592 20.9427 29.3014 19.3142 29.5962C17.3487 29.9472 15.3692 30.4245 13.9232 30.8878C12.9404 31.2247 12.4631 31.1264 12.2946 30.593C12.1262 30.0876 12.5333 29.7085 13.5722 29.3716C16.5204 28.4309 19.7353 27.8273 22.7537 27.6588C24.6069 27.5465 25.1825 27.5465 28.0184 27.729ZM35.6697 32.2776C36.147 32.5304 36.2874 32.9515 36.0207 33.3446L35.8101 33.6816H25H14.1899L13.9793 33.3446C13.7266 32.9656 13.853 32.5444 14.3022 32.2917C14.6392 32.0951 35.3047 32.0811 35.6697 32.2776ZM16.0852 35.984C19.3142 36.8263 21.5043 37.0931 25 37.0931C28.4957 37.0931 30.6858 36.8263 33.9148 35.984C34.9958 35.7032 36.0768 35.4364 36.3155 35.4084C37.0877 35.2961 37.4948 36.0682 36.9613 36.6017C36.6665 36.8965 34.1675 37.6265 32.0897 38.0196C29.3942 38.525 28.0184 38.6514 25 38.6514C21.9816 38.6514 20.6058 38.525 17.9103 38.0196C15.8325 37.6265 13.3335 36.8965 13.0387 36.6017C12.5052 36.0682 12.9123 35.2961 13.6845 35.4084C13.9232 35.4364 15.0042 35.7032 16.0852 35.984ZM14.1759 38.9322C17.7137 40.0693 21.0269 40.5747 25 40.5747C29.0011 40.5747 32.1038 40.0974 35.8382 38.9322C37.228 38.4829 37.5509 38.4268 37.8458 38.5672C38.2669 38.7637 38.3231 39.4235 37.9581 39.7464C37.8177 39.8728 37.1017 40.1536 36.3717 40.3922C30.6297 42.2173 24.6911 42.6525 18.907 41.6838C16.2256 41.2346 12.5473 40.1957 12.056 39.7464C11.5506 39.3112 11.8454 38.4689 12.4912 38.4548C12.6035 38.4548 13.3616 38.6654 14.1759 38.9322Z" fill="black"/>
</svg>
