<svg width="50" height="50" viewBox="0 0 50 50" fill="none" xmlns="http://www.w3.org/2000/svg">
<path d="M9.82514 5.37741C9.60271 5.70334 9.55138 6.35521 9.55138 9.16855C9.55138 13.0798 9.27761 12.4279 11.827 14.5722L13.3156 15.8073V23.8185V31.8296L12.6312 32.9961C12.2377 33.6309 11.827 34.1626 11.7073 34.1626C11.5875 34.1626 11.3651 34.2999 11.2111 34.4714C10.9886 34.7116 10.9202 35.2434 10.886 36.9931L10.8346 39.2232L9.12362 39.309C6.95064 39.4119 6.95064 39.4119 7.01908 42.3625C7.07041 44.2323 7.10463 44.5068 7.3955 44.7298C7.9088 45.0901 42.3344 45.0901 42.8477 44.7298C43.1386 44.5068 43.1728 44.2323 43.2241 42.3625C43.2926 39.4119 43.2926 39.4119 41.1196 39.309L39.4086 39.2232L39.3572 36.9931C39.323 35.2434 39.2546 34.7116 39.0321 34.4714C38.8781 34.2999 38.6557 34.1626 38.5359 34.1626C38.4162 34.1626 38.0055 33.6309 37.612 32.9961L36.9276 31.8296V23.767L36.9447 15.7216L38.3306 14.6065C39.0835 13.989 39.9219 13.2856 40.1956 13.0283L40.6918 12.5823V9.16855C40.6918 6.37237 40.6405 5.70334 40.4181 5.37741C40.1614 5.01716 40.0587 5.00001 37.1842 5.00001C33.7109 5.00001 33.6767 5.01716 33.6767 6.47529V7.40164H31.4523H29.228V6.47529C29.228 4.98285 29.2622 5.00001 25.1216 5.00001C20.9809 5.00001 21.0152 4.98285 21.0152 6.47529V7.40164H18.7908H16.5665V6.47529C16.5665 5.01716 16.5323 5.00001 13.059 5.00001C10.1845 5.00001 10.0818 5.01716 9.82514 5.37741ZM40.2641 12.0334C40.5378 12.9254 41.1025 12.8911 25.1216 12.8911C9.14073 12.8911 9.70537 12.9254 9.97913 12.0334C10.0818 11.6903 10.116 11.6903 25.1216 11.6903C40.1272 11.6903 40.1614 11.6903 40.2641 12.0334ZM36.3116 15.0525C36.5169 15.2584 36.5341 15.3956 36.4143 15.6529C36.2432 15.9617 35.9181 15.9789 25.1216 15.9789C14.3251 15.9789 14 15.9617 13.8289 15.6529C13.7091 15.3956 13.7262 15.2584 13.9316 15.0525C14.1711 14.8124 15.4202 14.7781 25.1216 14.7781C34.823 14.7781 36.0721 14.8124 36.3116 15.0525ZM36.2774 31.538C36.6538 31.8811 36.6538 32.0012 36.3116 32.3443C36.0721 32.5844 34.823 32.6187 25.1216 32.6187C15.4202 32.6187 14.1711 32.5844 13.9316 32.3443C13.5894 32.0183 13.5894 31.9497 13.9487 31.5552C14.2053 31.2635 14.7871 31.2464 25.0874 31.2464C34.9599 31.2464 35.9865 31.2807 36.2774 31.538ZM37.458 33.9911C37.6291 34.094 37.7831 34.317 37.7831 34.5057C37.7831 34.6944 37.6291 34.9174 37.458 35.0204C36.996 35.2605 13.2472 35.2605 12.7852 35.0204C12.3745 34.7974 12.3574 34.2313 12.7681 34.0083C13.1787 33.7681 36.996 33.7509 37.458 33.9911ZM38.8953 39.5663V40.0809H25.1216C11.981 40.0809 11.3479 40.0638 11.2966 39.7722C11.1255 38.9144 10.4411 38.9659 25.1558 39.0002L38.8953 39.0517V39.5663Z" fill="black"/>
</svg>
