<svg width="50" height="50" viewBox="0 0 50 50" fill="none" xmlns="http://www.w3.org/2000/svg">
<path d="M24.091 5.15339C23.6434 5.3722 23.4561 5.77856 23.4561 6.50531V7.09141L23.0329 7.36492C22.3817 7.77909 22.2922 7.85724 22.3654 7.96664C22.398 8.02135 22.8457 8.63088 23.3503 9.31075C23.855 9.99844 24.2945 10.6392 24.319 10.7486C24.4004 11.0456 24.3027 11.5223 24.1155 11.7802C23.8957 12.0771 23.3178 12.2959 22.9352 12.2256C22.5201 12.1474 22.3084 11.9521 21.5352 10.9049C21.1445 10.3814 20.7945 9.92029 20.7619 9.88122C20.6724 9.77963 20.2654 10.6627 20.07 11.3582C19.8828 12.0302 19.8584 13.726 20.0293 14.3433L20.1351 14.7575H24.6771H29.2191L29.3167 14.3824C29.4714 13.7963 29.5121 12.7257 29.4063 12.038C29.1132 10.1391 27.99 8.41207 26.362 7.37273L25.8981 7.07578V6.4975C25.8981 5.76293 25.7108 5.3722 25.2469 5.14558C24.848 4.95021 24.4817 4.95021 24.091 5.15339Z" fill="black"/>
<path d="M17.3676 17.2504C16.5455 17.5239 15.9676 18.1569 15.7885 19.0009C15.6013 19.8448 15.9676 20.7748 16.6839 21.2984C17.3839 21.8063 17.156 21.7985 24.848 21.7751L31.7993 21.7516L32.2633 21.5328C33.1342 21.1186 33.5901 20.4075 33.5901 19.4463C33.5901 18.4851 33.1342 17.774 32.2633 17.3598L31.7993 17.141L24.7992 17.1254C18.1816 17.1097 17.7746 17.1097 17.3676 17.2504Z" fill="black"/>
<path d="M18.5397 24.307C18.5153 24.4086 18.4421 24.7837 18.3688 25.151C18.0025 26.9952 17.2618 29.3865 16.5048 31.1057L16.1385 31.9497H24.6771H33.2156L32.9633 31.3792C32.0517 29.324 31.4086 27.2375 30.8633 24.5805L30.7737 24.1351H24.6689H18.5723L18.5397 24.307Z" fill="black"/>
<path d="M14.0548 34.4034C12.5571 34.7472 11.4907 35.9116 11.2791 37.4042L11.2221 37.8106H24.6771H38.132L38.0751 37.4042C37.8634 35.8725 36.6832 34.6456 35.1692 34.3721C34.5099 34.2471 14.5757 34.2784 14.0548 34.4034Z" fill="black"/>
<path d="M10.8477 40.28C10.1965 40.4441 9.63487 40.7645 9.13021 41.249C7.86041 42.4681 7.60808 44.3358 8.64183 44.8437C8.95928 45 9.08951 45 24.6771 45C40.2646 45 40.3949 45 40.7123 44.8437C41.0867 44.664 41.3635 44.2107 41.3635 43.8044C41.3635 42.1242 40.0042 40.5457 38.2785 40.2331C37.9936 40.1862 33.2807 40.155 24.5631 40.1628C13.2326 40.1628 11.2221 40.1784 10.8477 40.28Z" fill="black"/>
</svg>
