<svg width="50" height="50" viewBox="0 0 50 50" fill="none" xmlns="http://www.w3.org/2000/svg">
<path d="M22.8055 5.63449C21.1077 6.16472 19.4784 7.72119 18.8782 9.41448C18.4838 10.492 18.4666 12.2709 18.8439 13.3313L19.1011 14.101L18.2265 14.9562C15.9456 17.1797 14.9338 20.2926 15.4997 23.2859C15.7398 24.466 16.7173 26.6382 17.249 27.1172C17.4205 27.2711 17.5748 27.4763 17.5748 27.5448C17.5748 27.6303 17.1289 27.9895 16.5973 28.3486C15.3111 29.2209 13.4246 31.205 12.3613 32.8128C10.3034 35.8915 9 40.4241 9 44.4948V46H24.5376H40.0923L39.9894 43.5712C39.8694 40.903 39.5092 39.0387 38.686 36.798C37.3827 33.2062 35.1189 30.1617 32.4436 28.3144L31.5003 27.6645L32.1692 26.6382C33.1639 25.0989 33.5583 23.9016 33.644 22.1399C33.8155 19.3177 32.9752 17.0771 31.0544 15.1614L29.974 14.0839L30.2313 13.4168C30.3685 13.0405 30.4885 12.1169 30.5057 11.3643C30.5228 10.1329 30.4542 9.85919 29.9569 8.85005C29.3395 7.58435 28.3105 6.55811 27.0414 5.94237C26.1496 5.51477 23.7487 5.34373 22.8055 5.63449Z" fill="black"/>
</svg>
