<svg width="50" height="50" viewBox="0 0 50 50" fill="none" xmlns="http://www.w3.org/2000/svg">
<path d="M22.7791 5.46125C22.037 5.9936 21.0691 7.09055 20.5852 7.9294C20.2626 8.47788 20.1658 8.5424 19.5689 8.5424C18.9559 8.5424 18.8752 8.49401 18.3106 7.65516C17.0685 5.86454 15.6973 5.04183 14.7294 5.49351C14.4713 5.62257 14.1809 5.89681 14.068 6.12265C13.7615 6.71952 13.826 8.49401 14.1809 9.5103L14.4874 10.3975L14.1003 11.2041C13.8905 11.6397 13.3582 12.4463 12.9226 12.9786C11.3256 14.9628 6.08281 24.6418 5.32462 27.0616C5.00199 28.0295 4.95359 28.4489 5.03425 29.4813C5.29236 32.8851 6.74421 34.4337 9.59952 34.337C10.6158 34.3047 10.6803 34.3208 10.9062 34.7241C11.1804 35.2726 11.5837 35.4823 12.3419 35.4823C13.4066 35.4823 14.2454 34.9338 15.3747 33.4981C16.6652 31.8365 17.4557 31.0945 19.1656 29.9169C20.9401 28.6747 23.0372 26.9809 24.4084 25.6581L25.5054 24.5934L25.4247 25.642C25.2311 27.7391 24.4407 29.8846 23.2631 31.5139C22.9243 31.9656 21.5692 33.4658 20.2303 34.837C16.8588 38.3215 16.0199 39.9024 15.8425 42.9997C15.7618 44.2257 15.7941 44.4999 16.0199 44.7258C16.278 44.9839 17.3589 45 30.3771 45C43.8148 45 44.4762 44.9839 44.7182 44.7096C44.9602 44.4515 44.9924 43.9353 44.9924 40.8703C44.9763 22.9319 40.4756 13.1077 30.7159 9.72001C30.1029 9.5103 28.7478 9.15541 27.7315 8.96183L25.8925 8.5908L25.6989 7.54224C25.2634 5.17088 24.2148 4.41269 22.7791 5.46125ZM29.9093 10.3169C39.2012 12.6882 44.1375 24.2224 43.5406 42.177L43.4599 44.5967L42.1694 44.6451L40.8789 44.6935L40.8627 38.8377C40.8627 32.6593 40.7175 30.7235 39.9916 27.11C38.9431 21.8994 36.4426 17.1406 33.4422 14.624C32.2807 13.64 30.119 12.4947 28.4897 11.9946C27.4573 11.6719 27.4412 11.6074 27.8767 10.4298C28.0864 9.89746 28.2477 9.89746 29.9093 10.3169ZM17.5524 13.882C18.1009 14.3982 17.9719 15.6242 17.2298 16.8502C16.3103 18.3666 15.3585 18.8505 14.5681 18.173C14.197 17.8504 14.1164 17.6568 14.1325 17.1083C14.1487 16.7534 14.3584 16.0598 14.5842 15.6081C15.5037 13.7852 16.6975 13.0915 17.5524 13.882ZM10.0673 26.6421C10.5029 26.8357 10.9546 27.5133 10.9546 27.9811C10.9546 28.465 10.4868 29.1426 10.0189 29.3361C8.66388 29.9007 7.32495 28.1585 8.30898 27.0777C8.84133 26.4808 9.40594 26.3356 10.0673 26.6421Z" fill="black"/>
</svg>
