<svg width="50" height="50" viewBox="0 0 50 50" fill="none" xmlns="http://www.w3.org/2000/svg">
<path d="M9.90308 5.34722C9.57818 5.67212 9.56108 5.91152 9.56108 9.16055V12.6148L11.4421 14.4958L13.3231 16.3768L13.306 24.1574V31.9379L12.6562 32.9468C12.3142 33.5111 11.8012 34.0925 11.5105 34.2464L11.0146 34.5371L10.9633 36.8627L10.912 39.2055H9.30457C7.04736 39.2055 6.91056 39.3936 7.03026 42.6255C7.08156 44.2158 7.11576 44.3868 7.49196 44.6946C7.88527 45.0195 8.34697 45.0195 25.2248 44.9853C41.5896 44.934 42.5643 44.9169 42.855 44.6262C43.0944 44.3868 43.1799 43.9764 43.2141 42.6084C43.3338 39.4107 43.197 39.2055 40.9398 39.2055H39.3323L39.281 36.8627L39.2297 34.5371L38.7338 34.2464C38.4431 34.0925 37.9301 33.5111 37.5881 32.9468L36.9383 31.9379V24.1574L36.9212 16.3768L38.8022 14.4958L40.6833 12.6148V9.16055C40.6833 4.68032 40.9569 5.00522 37.2119 5.00522C33.7748 5.00522 33.6722 5.05652 33.6722 6.56133V7.57024H31.4492H29.2262V6.56133C29.2262 5.02232 29.192 5.00522 25.1222 5.00522C21.0523 5.00522 21.0181 5.02232 21.0181 6.56133V7.57024H18.7951H16.5721V6.62973C16.5721 5.05652 16.4353 5.00522 13.0666 5.00522C10.4674 5.00522 10.2109 5.03942 9.90308 5.34722ZM14.6911 7.86094C14.6911 9.46835 14.6569 9.45125 18.7609 9.45125C22.9163 9.45125 22.8992 9.46835 22.8992 7.87804V6.88623H25.1222H27.3452V7.86094C27.3452 9.46835 27.311 9.45125 31.415 9.45125C35.5703 9.45125 35.5532 9.46835 35.5532 7.87804V6.88623H37.1777H38.8022V9.10924V11.3323H25.1222H11.4421V9.10924V6.88623H13.0666H14.6911V7.86094ZM37.2632 13.333C37.2632 13.4014 36.9041 13.8289 36.4595 14.2735L35.6558 15.0943H25.1393H14.6227L13.8019 14.2906C13.3573 13.846 12.9811 13.4185 12.9811 13.3501C12.9811 13.2817 18.4531 13.2133 25.1222 13.2133C31.8083 13.2133 37.2632 13.2646 37.2632 13.333ZM34.8692 23.5588V30.9974H25.1222H15.3751V23.5588V16.1203H25.1222H34.8692V23.5588ZM35.0402 32.2115C35.0402 32.3312 35.2796 32.7929 35.5532 33.2546C35.8439 33.6992 36.0662 34.1096 36.0662 34.1609C36.0662 34.2122 31.1414 34.2464 25.1222 34.2464C19.1029 34.2464 14.1781 34.2122 14.1781 34.1609C14.1781 34.1096 14.4175 33.6992 14.6911 33.2546C14.9818 32.7929 15.2041 32.3312 15.2041 32.2115C15.2041 32.0747 17.8204 32.0234 25.1222 32.0234C32.4239 32.0234 35.0402 32.0747 35.0402 32.2115ZM37.4342 37.6664V39.2055H25.1222H12.8101V37.6664V36.1274H25.1222H37.4342V37.6664ZM41.1963 42.0612V42.9675H25.1222H9.04807V42.0612V41.172H25.1222H41.1963V42.0612Z" fill="black"/>
<path d="M34.8692 23.5588V30.9974H25.1222H15.3751V23.5588V16.1203H25.1222H34.8692V23.5588Z" fill="black"/>
<path d="M34.8692 23.5588V30.9974H25.1222H15.3751V23.5588V16.1203H25.1222H34.8692V23.5588Z" fill="#f5f1f1"/>
<path d="M37.2632 13.333C37.2632 13.4014 36.9041 13.8289 36.4595 14.2735L35.6558 15.0943H25.1393H14.6227L13.8019 14.2906C13.3573 13.846 12.9811 13.4185 12.9811 13.3501C12.9811 13.2817 18.4531 13.2133 25.1222 13.2133C31.8083 13.2133 37.2632 13.2646 37.2632 13.333Z" fill="black"/>
<path d="M37.2632 13.333C37.2632 13.4014 36.9041 13.8289 36.4595 14.2735L35.6558 15.0943H25.1393H14.6227L13.8019 14.2906C13.3573 13.846 12.9811 13.4185 12.9811 13.3501C12.9811 13.2817 18.4531 13.2133 25.1222 13.2133C31.8083 13.2133 37.2632 13.2646 37.2632 13.333Z" fill="#f5f1f1"/>
<path d="M14.6911 7.86094C14.6911 9.46835 14.6569 9.45125 18.7609 9.45125C22.9163 9.45125 22.8992 9.46835 22.8992 7.87804V6.88623H25.1222H27.3452V7.86094C27.3452 9.46835 27.311 9.45125 31.415 9.45125C35.5703 9.45125 35.5532 9.46835 35.5532 7.87804V6.88623H37.1777H38.8022V9.10924V11.3323H25.1222H11.4421V9.10924V6.88623H13.0666H14.6911V7.86094Z" fill="black"/>
<path d="M14.6911 7.86094C14.6911 9.46835 14.6569 9.45125 18.7609 9.45125C22.9163 9.45125 22.8992 9.46835 22.8992 7.87804V6.88623H25.1222H27.3452V7.86094C27.3452 9.46835 27.311 9.45125 31.415 9.45125C35.5703 9.45125 35.5532 9.46835 35.5532 7.87804V6.88623H37.1777H38.8022V9.10924V11.3323H25.1222H11.4421V9.10924V6.88623H13.0666H14.6911V7.86094Z" fill="#f5f1f1"/>
<path d="M35.0402 32.2115C35.0402 32.3312 35.2796 32.7929 35.5532 33.2546C35.8439 33.6992 36.0662 34.1096 36.0662 34.1609C36.0662 34.2122 31.1414 34.2464 25.1222 34.2464C19.1029 34.2464 14.1781 34.2122 14.1781 34.1609C14.1781 34.1096 14.4175 33.6992 14.6911 33.2546C14.9818 32.7929 15.2041 32.3312 15.2041 32.2115C15.2041 32.0747 17.8204 32.0234 25.1222 32.0234C32.4239 32.0234 35.0402 32.0747 35.0402 32.2115Z" fill="black"/>
<path d="M35.0402 32.2115C35.0402 32.3312 35.2796 32.7929 35.5532 33.2546C35.8439 33.6992 36.0662 34.1096 36.0662 34.1609C36.0662 34.2122 31.1414 34.2464 25.1222 34.2464C19.1029 34.2464 14.1781 34.2122 14.1781 34.1609C14.1781 34.1096 14.4175 33.6992 14.6911 33.2546C14.9818 32.7929 15.2041 32.3312 15.2041 32.2115C15.2041 32.0747 17.8204 32.0234 25.1222 32.0234C32.4239 32.0234 35.0402 32.0747 35.0402 32.2115Z" fill="#f5f1f1"/>
<path d="M37.4342 37.6664V39.2055H25.1222H12.8101V37.6664V36.1274H25.1222H37.4342V37.6664Z" fill="black"/>
<path d="M37.4342 37.6664V39.2055H25.1222H12.8101V37.6664V36.1274H25.1222H37.4342V37.6664Z" fill="#f5f1f1"/>
<path d="M41.1963 42.0612V42.9675H25.1222H9.04807V42.0612V41.172H25.1222H41.1963V42.0612Z" fill="black"/>
<path d="M41.1963 42.0612V42.9675H25.1222H9.04807V42.0612V41.172H25.1222H41.1963V42.0612Z" fill="#f5f1f1"/>
</svg>
