<svg width="50" height="50" viewBox="0 0 50 50" fill="none" xmlns="http://www.w3.org/2000/svg">
<g clip-path="url(#clip0_2_64)">
<path d="M24.0328 5.09956C22.1899 5.57296 20.4992 7.06077 19.8568 8.78528C19.4172 9.93496 19.3665 11.7778 19.7553 12.826L20.0089 13.5361L18.9607 14.6013C16.7121 16.8668 15.8498 19.927 16.5599 22.9871C16.8304 24.1368 17.456 25.4894 18.1323 26.3685C18.369 26.6729 18.5211 26.9434 18.4873 26.9772C18.4535 26.9941 18.0815 27.2477 17.6589 27.5351C14.8861 29.4118 12.4853 32.7594 11.2511 36.4789C10.5241 38.6599 10.2029 40.4013 10.1014 42.8359L10 45H25.3516H40.7031L40.6017 42.6668C40.4157 38.4908 39.3505 35.0249 37.2372 31.8126C36.3749 30.4938 34.0925 28.1438 33.0442 27.5013C32.6216 27.2477 32.2665 27.011 32.2327 26.9941C32.2158 26.9772 32.5201 26.47 32.9259 25.8782C33.9065 24.3904 34.2615 23.2745 34.3461 21.2457C34.4306 19.741 34.3799 19.4029 33.991 18.2363C33.45 16.6132 32.6892 15.4128 31.5564 14.3646L30.6942 13.553L30.9647 12.9275C31.3366 12.0652 31.3366 9.83351 30.9478 8.836C30.3898 7.33128 28.9189 5.86038 27.448 5.35317C26.5012 5.01503 24.8612 4.89668 24.0328 5.09956ZM26.6027 7.06077C27.8369 7.41582 28.8851 8.48096 29.2402 9.73207C29.5952 10.9663 29.443 11.93 28.716 13.1642C28.3948 13.6883 28.1919 14.1786 28.2596 14.2462C28.3272 14.3139 28.8175 14.6689 29.3585 15.024C30.542 15.8186 31.5902 17.0697 32.0636 18.287C32.368 19.0309 32.4525 19.555 32.4525 20.9921C32.4525 22.6659 32.4187 22.835 31.8777 23.917C31.3366 25.0667 30.5251 26.0135 29.274 27.0279L28.6146 27.552L29.815 27.9916C34.5659 29.8175 38.1671 35.3799 38.725 41.7877L38.8433 43.1402H25.3685C14.5649 43.1402 11.9105 43.0895 11.9105 42.9204C11.9105 42.1258 12.3332 39.5898 12.6713 38.2541C13.9393 33.4695 17.1517 29.378 20.6683 28.093C21.1924 27.9071 21.7504 27.7042 21.8856 27.6535C22.0885 27.5858 22.0547 27.4844 21.7165 27.2308C20.4654 26.2164 19.451 25.0498 18.91 23.9508C17.27 20.6371 18.5211 16.6639 21.8349 14.6858L22.7141 14.1617L22.2914 13.6038C21.6489 12.7415 21.3784 11.9638 21.3784 10.8987C21.3953 9.34321 22.1561 8.02447 23.4242 7.3651C24.6584 6.73954 25.3177 6.67191 26.6027 7.06077Z" fill="black"/>
<path d="M26.6027 7.06077C27.8369 7.41582 28.8851 8.48096 29.2402 9.73207C29.5952 10.9663 29.443 11.93 28.716 13.1642C28.3948 13.6883 28.1919 14.1786 28.2596 14.2462C28.3272 14.3139 28.8175 14.6689 29.3585 15.024C30.542 15.8186 31.5902 17.0697 32.0636 18.287C32.368 19.0309 32.4525 19.555 32.4525 20.9921C32.4525 22.6659 32.4187 22.835 31.8777 23.917C31.3366 25.0667 30.5251 26.0135 29.274 27.0279L28.6146 27.552L29.815 27.9916C34.5659 29.8175 38.1671 35.3799 38.725 41.7877L38.8433 43.1402H25.3685C14.5649 43.1402 11.9105 43.0895 11.9105 42.9204C11.9105 42.1258 12.3332 39.5898 12.6713 38.2541C13.9393 33.4695 17.1517 29.378 20.6683 28.093C21.1924 27.9071 21.7504 27.7042 21.8856 27.6535C22.0885 27.5858 22.0547 27.4844 21.7165 27.2308C20.4654 26.2164 19.451 25.0498 18.91 23.9508C17.27 20.6371 18.5211 16.6639 21.8349 14.6858L22.7141 14.1617L22.2914 13.6038C21.6489 12.7415 21.3784 11.9638 21.3784 10.8987C21.3953 9.34321 22.1561 8.02447 23.4242 7.3651C24.6584 6.73954 25.3177 6.67191 26.6027 7.06077Z" fill="#f5f1f1"/>
</g>
<defs>
<clipPath id="clip0_2_64">
<rect width="30.7031" height="40" fill="white" transform="matrix(1 0 0 -1 10 45)"/>
</clipPath>
</defs>
</svg>
