<svg width="50" height="50" viewBox="0 0 50 50" fill="none" xmlns="http://www.w3.org/2000/svg">
<path d="M24.25 5.1235C23.8277 5.34247 23.64 5.74913 23.64 6.44515C23.64 6.79707 23.6087 6.99258 23.5539 6.99258C23.3193 6.99258 22.1306 7.80591 21.5128 8.39245C20.3866 9.45603 19.6437 10.7229 19.2527 12.2166C19.0415 13.03 18.979 14.508 19.1197 15.2979L19.2292 15.9079H18.7444C17.6573 15.9079 16.8049 16.2442 16.0854 16.9637C14.7403 18.301 14.7012 20.4047 15.9916 21.8202C16.406 22.2738 17.2506 22.7508 17.759 22.8368C17.9467 22.8681 18.1031 22.915 18.1265 22.9385C18.1813 23.0323 18.0171 24.5652 17.8528 25.5271C17.454 27.9045 16.4686 30.4931 15.186 32.5186C14.8028 33.1364 14.7716 33.1598 14.3805 33.2537C13.7549 33.4023 13.0432 33.7855 12.5427 34.2547C11.6668 35.068 11.2211 36.0143 11.1507 37.2421C11.1116 37.8208 11.0803 37.9851 10.9786 38.0163C10.5094 38.1649 9.80557 38.5872 9.41455 38.947C8.86711 39.4553 8.51519 39.9714 8.2493 40.6831C8.06943 41.1523 8.04597 41.3478 8.01468 42.6226C7.9834 43.9442 7.99122 44.0537 8.14763 44.3587C8.25712 44.5777 8.42135 44.7419 8.62468 44.8436C8.92968 45 9.04698 45 24.813 45C40.5791 45 40.6964 45 41.0014 44.8436C41.2047 44.7419 41.3689 44.5777 41.4784 44.3587C41.6348 44.0537 41.6427 43.9442 41.6114 42.6226C41.5801 41.3478 41.5566 41.1523 41.3768 40.6831C41.1109 39.9714 40.7589 39.4553 40.2115 38.947C39.8205 38.5872 39.1166 38.1649 38.6474 38.0163C38.5458 37.9851 38.5145 37.8208 38.4754 37.2421C38.405 36.0143 37.9592 35.068 37.0833 34.2547C36.5828 33.7855 35.8712 33.4023 35.2377 33.2537C34.8467 33.1598 34.8232 33.1442 34.3931 32.4482C33.8222 31.541 33.048 29.9456 32.6491 28.8508C32.0704 27.2554 31.5855 24.9796 31.523 23.5016L31.4995 22.9229L31.8905 22.829C32.5162 22.6882 33.0323 22.3989 33.5328 21.8906C34.9249 20.4985 34.9249 18.3557 33.5328 16.9558C32.8212 16.2442 31.9766 15.9079 30.8817 15.9079H30.3968L30.4907 15.337C30.7566 13.8277 30.475 11.982 29.7556 10.5509C29.169 9.37782 27.996 8.10309 26.8463 7.39925C26.4866 7.17246 26.1425 6.99258 26.0878 6.99258C26.0174 6.99258 25.9861 6.83618 25.9861 6.44515C25.9861 5.74131 25.7984 5.34247 25.3605 5.11568C24.9773 4.92017 24.6253 4.92017 24.25 5.1235ZM25.6264 9.39347C26.2442 9.76103 27.1201 10.6526 27.4954 11.2938C27.6597 11.5754 27.8786 12.0837 27.996 12.4278C28.1836 12.9831 28.2071 13.1707 28.1993 14.0701C28.1993 14.7114 28.1524 15.2275 28.082 15.4778L27.9725 15.8688H24.813H21.6536L21.5441 15.4778C21.372 14.8678 21.3798 13.249 21.5597 12.639C21.6379 12.3731 21.7318 12.1384 21.7631 12.115C21.7865 12.0993 22.1306 12.5373 22.5216 13.0847C23.2724 14.1327 23.5227 14.3438 24.0232 14.3438C24.6957 14.3438 25.2588 13.7104 25.1806 13.0456C25.1493 12.7719 24.9694 12.4669 24.1952 11.3799C23.6791 10.6526 23.2489 10.0269 23.2568 9.98782C23.2568 9.88615 23.6947 9.56552 24.2187 9.28398C24.7896 8.97116 24.946 8.9868 25.6264 9.39347ZM31.6168 18.4105C31.9687 18.5903 32.2425 19.0361 32.2425 19.4349C32.2425 19.7947 31.9375 20.2795 31.6012 20.4516C31.3197 20.5924 31.0381 20.6002 24.8052 20.6002H18.3064L17.9936 20.4281C17.2037 19.9824 17.1959 18.911 17.9779 18.4417L18.2829 18.254H24.7974C31.1711 18.254 31.3197 18.254 31.6168 18.4105ZM29.1534 23.4703C29.3489 25.5583 29.5679 26.7862 30.0058 28.3111C30.3499 29.4999 31.0225 31.1813 31.5777 32.2448C31.8123 32.6906 32.0079 33.0738 32.0079 33.0894C32.0079 33.1051 28.7702 33.1129 24.813 33.1129C20.8559 33.1129 17.6182 33.0973 17.6182 33.0816C17.6182 33.0582 17.8137 32.6828 18.0483 32.237C19.2058 30.0395 20.1051 27.0833 20.3554 24.6277C20.4023 24.1507 20.457 23.5798 20.4805 23.353L20.5196 22.9463H24.813H29.0986L29.1534 23.4703ZM34.8623 35.592C35.6053 35.8422 36.1527 36.6399 36.1527 37.4689V37.8052H24.813H13.4734V37.4689C13.4734 36.9449 13.6923 36.4053 14.0599 36.0456C14.6699 35.4356 13.9191 35.4747 24.7817 35.4669C33.6189 35.459 34.5182 35.4669 34.8623 35.592ZM37.9905 40.2843C38.7647 40.5423 39.2809 41.3322 39.2809 42.2394V42.6539H24.813H10.3452V42.2394C10.3452 41.6372 10.5485 41.1132 10.9317 40.7379C11.5495 40.12 10.4312 40.167 24.7817 40.1591C36.5281 40.1513 37.6464 40.1591 37.9905 40.2843Z" fill="black"/>
<path d="M25.6264 9.39347C26.2442 9.76103 27.1201 10.6526 27.4954 11.2938C27.6597 11.5754 27.8786 12.0837 27.996 12.4278C28.1836 12.9831 28.2071 13.1707 28.1993 14.0701C28.1993 14.7114 28.1524 15.2275 28.082 15.4778L27.9725 15.8688H24.813H21.6536L21.5441 15.4778C21.372 14.8678 21.3798 13.249 21.5597 12.639C21.6379 12.3731 21.7318 12.1384 21.7631 12.115C21.7865 12.0993 22.1306 12.5373 22.5216 13.0847C23.2724 14.1327 23.5227 14.3438 24.0232 14.3438C24.6957 14.3438 25.2588 13.7104 25.1806 13.0456C25.1493 12.7719 24.9694 12.4669 24.1952 11.3799C23.6791 10.6526 23.2489 10.0269 23.2568 9.98782C23.2568 9.88615 23.6947 9.56552 24.2187 9.28398C24.7896 8.97116 24.946 8.9868 25.6264 9.39347Z" fill="black"/>
<path d="M25.6264 9.39347C26.2442 9.76103 27.1201 10.6526 27.4954 11.2938C27.6597 11.5754 27.8786 12.0837 27.996 12.4278C28.1836 12.9831 28.2071 13.1707 28.1993 14.0701C28.1993 14.7114 28.1524 15.2275 28.082 15.4778L27.9725 15.8688H24.813H21.6536L21.5441 15.4778C21.372 14.8678 21.3798 13.249 21.5597 12.639C21.6379 12.3731 21.7318 12.1384 21.7631 12.115C21.7865 12.0993 22.1306 12.5373 22.5216 13.0847C23.2724 14.1327 23.5227 14.3438 24.0232 14.3438C24.6957 14.3438 25.2588 13.7104 25.1806 13.0456C25.1493 12.7719 24.9694 12.4669 24.1952 11.3799C23.6791 10.6526 23.2489 10.0269 23.2568 9.98782C23.2568 9.88615 23.6947 9.56552 24.2187 9.28398C24.7896 8.97116 24.946 8.9868 25.6264 9.39347Z" fill="#f5f1f1"/>
<path d="M31.6168 18.4105C31.9687 18.5903 32.2425 19.0361 32.2425 19.4349C32.2425 19.7947 31.9375 20.2795 31.6012 20.4516C31.3197 20.5924 31.0381 20.6002 24.8052 20.6002H18.3064L17.9936 20.4281C17.2037 19.9824 17.1959 18.911 17.9779 18.4417L18.2829 18.254H24.7974C31.1711 18.254 31.3197 18.254 31.6168 18.4105Z" fill="black"/>
<path d="M31.6168 18.4105C31.9687 18.5903 32.2425 19.0361 32.2425 19.4349C32.2425 19.7947 31.9375 20.2795 31.6012 20.4516C31.3197 20.5924 31.0381 20.6002 24.8052 20.6002H18.3064L17.9936 20.4281C17.2037 19.9824 17.1959 18.911 17.9779 18.4417L18.2829 18.254H24.7974C31.1711 18.254 31.3197 18.254 31.6168 18.4105Z" fill="#f5f1f1"/>
<path d="M29.1534 23.4703C29.3489 25.5583 29.5679 26.7862 30.0058 28.3111C30.3499 29.4999 31.0225 31.1813 31.5777 32.2448C31.8123 32.6906 32.0079 33.0738 32.0079 33.0894C32.0079 33.1051 28.7702 33.1129 24.813 33.1129C20.8559 33.1129 17.6182 33.0973 17.6182 33.0816C17.6182 33.0582 17.8137 32.6828 18.0483 32.237C19.2058 30.0395 20.1051 27.0833 20.3554 24.6277C20.4023 24.1507 20.457 23.5798 20.4805 23.353L20.5196 22.9463H24.813H29.0986L29.1534 23.4703Z" fill="black"/>
<path d="M29.1534 23.4703C29.3489 25.5583 29.5679 26.7862 30.0058 28.3111C30.3499 29.4999 31.0225 31.1813 31.5777 32.2448C31.8123 32.6906 32.0079 33.0738 32.0079 33.0894C32.0079 33.1051 28.7702 33.1129 24.813 33.1129C20.8559 33.1129 17.6182 33.0973 17.6182 33.0816C17.6182 33.0582 17.8137 32.6828 18.0483 32.237C19.2058 30.0395 20.1051 27.0833 20.3554 24.6277C20.4023 24.1507 20.457 23.5798 20.4805 23.353L20.5196 22.9463H24.813H29.0986L29.1534 23.4703Z" fill="#f5f1f1"/>
<path d="M34.8623 35.592C35.6053 35.8422 36.1527 36.6399 36.1527 37.4689V37.8052H24.813H13.4734V37.4689C13.4734 36.9449 13.6923 36.4053 14.0599 36.0456C14.6699 35.4356 13.9191 35.4747 24.7817 35.4669C33.6189 35.459 34.5182 35.4669 34.8623 35.592Z" fill="black"/>
<path d="M34.8623 35.592C35.6053 35.8422 36.1527 36.6399 36.1527 37.4689V37.8052H24.813H13.4734V37.4689C13.4734 36.9449 13.6923 36.4053 14.0599 36.0456C14.6699 35.4356 13.9191 35.4747 24.7817 35.4669C33.6189 35.459 34.5182 35.4669 34.8623 35.592Z" fill="#f5f1f1"/>
<path d="M37.9905 40.2843C38.7647 40.5423 39.2809 41.3322 39.2809 42.2394V42.6539H24.813H10.3452V42.2394C10.3452 41.6372 10.5485 41.1132 10.9317 40.7379C11.5495 40.12 10.4312 40.167 24.7817 40.1591C36.5281 40.1513 37.6464 40.1591 37.9905 40.2843Z" fill="black"/>
<path d="M37.9905 40.2843C38.7647 40.5423 39.2809 41.3322 39.2809 42.2394V42.6539H24.813H10.3452V42.2394C10.3452 41.6372 10.5485 41.1132 10.9317 40.7379C11.5495 40.12 10.4312 40.167 24.7817 40.1591C36.5281 40.1513 37.6464 40.1591 37.9905 40.2843Z" fill="#f5f1f1"/>
</svg>
