<svg width="50" height="50" viewBox="0 0 50 50" fill="none" xmlns="http://www.w3.org/2000/svg">
<path d="M22.7851 5.45177C21.9483 6.04762 21.1759 6.88503 20.5161 7.9318C20.1621 8.52765 20.0173 8.62428 19.5506 8.62428C19.084 8.62428 18.907 8.51155 18.4725 7.9318C17.6679 6.88503 16.6863 5.88658 16.2035 5.62891C15.2058 5.09748 14.1277 5.48398 13.8863 6.46633C13.7093 7.1266 13.9185 9.13961 14.2242 9.76767C14.4978 10.3474 14.4978 10.3635 13.9829 11.3459C13.6932 11.8934 13.1783 12.6503 12.8403 13.0368C11.5852 14.4701 6.35533 24.1164 5.37373 26.8219C4.98753 27.9009 4.95534 28.1747 5.0358 29.3986C5.14845 31.1056 5.32546 31.7498 5.98522 32.716C6.74154 33.8433 7.57831 34.2298 9.25186 34.2298C10.4105 34.2298 10.6197 34.2781 10.7645 34.5358C11.1185 35.2122 11.4082 35.3571 12.3576 35.3571C13.5806 35.3571 14.0472 35.035 15.6081 33.0864C16.4288 32.0719 17.2656 31.2506 18.038 30.6869C20.7414 28.7222 22.2058 27.5788 23.7667 26.1778L25.4081 24.7123V25.2437C25.4081 26.0328 24.9736 27.9009 24.5713 28.9155C23.8632 30.6708 23.123 31.6854 20.6288 34.262C16.8472 38.1753 15.753 40.2206 15.753 43.3609C15.753 44.4076 15.7851 44.5526 16.1231 44.778C16.461 45.0035 18.1185 45.0196 30.4609 44.9874C44.0746 44.9391 44.4286 44.9391 44.6539 44.6331C44.8309 44.3754 44.8792 43.5863 44.8792 40.8486C44.8792 30.4937 43.3665 22.8925 40.3091 17.6587C37.316 12.5859 32.8907 9.73546 26.3414 8.7048C25.8264 8.62428 25.7299 8.54376 25.7299 8.22168C25.7299 7.27154 25.3598 6.14425 24.8609 5.62891C24.1207 4.83981 23.7023 4.8076 22.7851 5.45177ZM23.8632 7.60972C23.9115 7.94791 23.9598 8.52766 23.9598 8.91415C23.9598 9.92871 24.4104 10.3152 25.7299 10.444C26.3092 10.5085 27.5 10.7339 28.385 10.9433C35.1758 12.602 39.2953 17.1112 41.4194 25.2598C42.4815 29.3664 42.916 32.9737 43.0608 38.9322L43.1573 43.0871H30.3161H17.4909L17.6035 42.3624C17.7644 41.2673 18.2633 39.9146 18.8426 38.9967C19.1322 38.5457 20.4196 37.0803 21.7069 35.7597C24.4265 32.9737 25.0218 32.1846 25.8747 30.3326C26.8563 28.1908 27.3391 25.8557 27.3391 23.2146C27.3391 22.3772 27.4356 21.8941 27.6931 21.3626C28.1758 20.3803 28.2885 18.7699 27.9023 18.3995C27.5644 18.0613 26.9529 18.0452 26.6793 18.3834C26.5667 18.5122 26.4218 19.0275 26.3575 19.5107C26.1322 21.1533 24.6678 23.0536 21.6747 25.6141C20.7253 26.4354 19.2771 27.5627 18.4725 28.1264C16.3484 29.6079 15.6725 30.2199 14.2242 31.9592C13.5162 32.8127 12.8082 33.5213 12.6472 33.5535C12.4059 33.6018 12.4059 33.5051 12.776 32.6999C13.307 31.476 13.307 30.8158 12.7599 30.3809C12.2288 29.9622 11.4082 29.9461 10.9093 30.3487C10.6358 30.5742 10.507 30.8641 10.4427 31.5082L10.3622 32.3779L9.34841 32.4262C8.09325 32.4906 7.64268 32.2329 7.2082 31.2345C6.78981 30.3004 6.64499 28.6578 6.90245 27.8526C7.75532 25.2115 12.3737 16.6441 14.353 14.0192C16.0426 11.7807 16.5415 10.3313 15.9943 9.28455C15.6725 8.64038 15.4955 7.49699 15.7369 7.49699C15.8334 7.49699 16.2679 7.98012 16.6863 8.57597C17.9736 10.4118 17.9575 10.3957 19.4863 10.3957C21.0472 10.3957 21.3529 10.2347 21.8679 9.20403C22.238 8.47934 23.4127 7.01387 23.6219 7.01387C23.7023 7.01387 23.7989 7.28764 23.8632 7.60972Z" fill="black"/>
<path d="M23.8632 7.60972C23.9115 7.94791 23.9598 8.52766 23.9598 8.91415C23.9598 9.92871 24.4104 10.3152 25.7299 10.444C26.3092 10.5085 27.5 10.7339 28.385 10.9433C35.1758 12.602 39.2953 17.1112 41.4194 25.2598C42.4815 29.3664 42.916 32.9737 43.0608 38.9322L43.1573 43.0871H30.3161H17.4909L17.6035 42.3624C17.7644 41.2673 18.2633 39.9146 18.8426 38.9967C19.1322 38.5457 20.4196 37.0803 21.7069 35.7597C24.4265 32.9737 25.0218 32.1846 25.8747 30.3326C26.8563 28.1908 27.3391 25.8557 27.3391 23.2146C27.3391 22.3772 27.4356 21.8941 27.6931 21.3626C28.1758 20.3803 28.2885 18.7699 27.9023 18.3995C27.5644 18.0613 26.9529 18.0452 26.6793 18.3834C26.5667 18.5122 26.4218 19.0275 26.3575 19.5107C26.1322 21.1533 24.6678 23.0536 21.6747 25.6141C20.7253 26.4354 19.2771 27.5627 18.4725 28.1264C16.3484 29.6079 15.6725 30.2199 14.2242 31.9592C13.5162 32.8127 12.8082 33.5213 12.6472 33.5535C12.4059 33.6018 12.4059 33.5051 12.776 32.6999C13.307 31.476 13.307 30.8158 12.7599 30.3809C12.2288 29.9622 11.4082 29.9461 10.9093 30.3487C10.6358 30.5742 10.507 30.8641 10.4427 31.5082L10.3622 32.3779L9.34841 32.4262C8.09325 32.4906 7.64268 32.2329 7.2082 31.2345C6.78981 30.3004 6.64499 28.6578 6.90245 27.8526C7.75532 25.2115 12.3737 16.6441 14.353 14.0192C16.0426 11.7807 16.5415 10.3313 15.9943 9.28455C15.6725 8.64038 15.4955 7.49699 15.7369 7.49699C15.8334 7.49699 16.2679 7.98012 16.6863 8.57597C17.9736 10.4118 17.9575 10.3957 19.4863 10.3957C21.0472 10.3957 21.3529 10.2347 21.8679 9.20403C22.238 8.47934 23.4127 7.01387 23.6219 7.01387C23.7023 7.01387 23.7989 7.28764 23.8632 7.60972Z" fill="black"/>
<path d="M23.8632 7.60972C23.9115 7.94791 23.9598 8.52766 23.9598 8.91415C23.9598 9.92871 24.4104 10.3152 25.7299 10.444C26.3092 10.5085 27.5 10.7339 28.385 10.9433C35.1758 12.602 39.2953 17.1112 41.4194 25.2598C42.4815 29.3664 42.916 32.9737 43.0608 38.9322L43.1573 43.0871H30.3161H17.4909L17.6035 42.3624C17.7644 41.2673 18.2633 39.9146 18.8426 38.9967C19.1322 38.5457 20.4196 37.0803 21.7069 35.7597C24.4265 32.9737 25.0218 32.1846 25.8747 30.3326C26.8563 28.1908 27.3391 25.8557 27.3391 23.2146C27.3391 22.3772 27.4356 21.8941 27.6931 21.3626C28.1758 20.3803 28.2885 18.7699 27.9023 18.3995C27.5644 18.0613 26.9529 18.0452 26.6793 18.3834C26.5667 18.5122 26.4218 19.0275 26.3575 19.5107C26.1322 21.1533 24.6678 23.0536 21.6747 25.6141C20.7253 26.4354 19.2771 27.5627 18.4725 28.1264C16.3484 29.6079 15.6725 30.2199 14.2242 31.9592C13.5162 32.8127 12.8082 33.5213 12.6472 33.5535C12.4059 33.6018 12.4059 33.5051 12.776 32.6999C13.307 31.476 13.307 30.8158 12.7599 30.3809C12.2288 29.9622 11.4082 29.9461 10.9093 30.3487C10.6358 30.5742 10.507 30.8641 10.4427 31.5082L10.3622 32.3779L9.34841 32.4262C8.09325 32.4906 7.64268 32.2329 7.2082 31.2345C6.78981 30.3004 6.64499 28.6578 6.90245 27.8526C7.75532 25.2115 12.3737 16.6441 14.353 14.0192C16.0426 11.7807 16.5415 10.3313 15.9943 9.28455C15.6725 8.64038 15.4955 7.49699 15.7369 7.49699C15.8334 7.49699 16.2679 7.98012 16.6863 8.57597C17.9736 10.4118 17.9575 10.3957 19.4863 10.3957C21.0472 10.3957 21.3529 10.2347 21.8679 9.20403C22.238 8.47934 23.4127 7.01387 23.6219 7.01387C23.7023 7.01387 23.7989 7.28764 23.8632 7.60972Z" fill="#f5f1f1"/>
<path d="M15.4955 14.2124C14.2564 15.4363 13.7093 17.546 14.4656 18.1579C15.3346 18.8504 16.4288 18.2385 17.33 16.5314C18.2472 14.8405 17.9575 13.6166 16.6702 13.6166C16.2035 13.6166 15.9622 13.7454 15.4955 14.2124Z" fill="black"/>
<path d="M8.62424 26.677C8.44723 26.7736 8.22195 27.0957 8.09321 27.4017C7.90011 27.8687 7.90011 28.0298 8.09321 28.4968C8.36677 29.141 8.76907 29.3986 9.47711 29.3986C10.1691 29.3986 10.9254 28.6417 10.9254 27.9492C10.9254 26.9025 9.54148 26.1456 8.62424 26.677Z" fill="black"/>
</svg>
