<svg width="50" height="50" viewBox="0 0 50 50" fill="none" xmlns="http://www.w3.org/2000/svg">
<path d="M24.149 7.60979C23.3348 7.91864 22.8013 8.36788 22.4924 9.01367C21.8607 10.3052 22.2678 11.8776 23.433 12.6637C23.7559 12.8884 24.0227 13.1411 24.0227 13.2253C24.0227 13.4359 21.7905 24.6949 21.6922 24.9757C21.6361 25.1442 17.2841 14.3624 17.2841 14.0536C17.2841 13.9974 17.4666 13.857 17.6912 13.7307C17.9018 13.6043 18.2668 13.2674 18.4914 12.9726C18.8564 12.4812 18.8985 12.3268 18.8985 11.3722C18.8985 10.1789 18.6739 9.7156 17.7473 9.01367C17.1016 8.52231 15.7538 8.39596 15.0238 8.76097C13.9428 9.30848 13.3532 10.221 13.3532 11.3581C13.3532 12.4672 14.1254 13.6605 15.0379 13.9553C15.3186 14.0395 15.3186 14.1659 15.3186 19.8797C15.3186 23.0945 15.2906 25.6917 15.2765 25.6636C15.2485 25.6355 14.013 23.6841 12.5249 21.3537C10.0541 17.4509 9.84354 17.0719 10.0401 16.8473C10.9105 15.8926 10.8684 14.0536 9.94181 13.0709C8.79063 11.8214 6.51636 11.9478 5.5898 13.2955C4.67728 14.6292 4.83171 16.0752 5.99692 17.1C6.60059 17.6194 6.8954 17.7458 7.87811 17.844C8.22908 17.8861 8.24312 17.9423 8.74852 20.9747C9.04333 22.6734 9.50661 25.4811 9.77334 27.2219C10.0541 28.9627 10.3489 30.5912 10.4332 30.8579C10.5174 31.1247 10.9666 31.7564 11.444 32.2618C11.9213 32.7672 12.6232 33.6657 12.9882 34.2413L13.6761 35.2942L13.5217 36.0663C13.4234 36.6279 13.255 36.9788 12.918 37.3298C12.4828 37.8071 11.809 39.0425 11.809 39.4075C11.809 39.5058 11.7107 39.7304 11.5984 39.9129C11.0228 40.7833 11.093 41.7239 11.7668 42.5241C12.4126 43.2963 12.8338 43.4086 16.8629 43.8157C19.2214 44.0544 30.9157 44.0684 33.1478 43.8157C36.6856 43.4367 37.2331 43.3384 37.6402 42.9874C38.2299 42.4961 38.5387 41.5835 38.3562 40.8956C38.272 40.5868 38.1176 40.2218 38.0052 40.0674C37.8789 39.9129 37.7806 39.5479 37.7806 39.2531C37.7806 38.5933 37.4577 37.7931 36.9945 37.3158C36.7698 37.0771 36.6014 36.67 36.4891 36.1225L36.3346 35.2942L37.0225 34.2413C37.3875 33.6657 38.0895 32.7672 38.5668 32.2618C39.0441 31.7564 39.4934 31.1247 39.5776 30.8579C39.6618 30.5912 39.9566 28.9627 40.2374 27.2219C40.5041 25.4811 40.9674 22.6734 41.2622 20.9747C41.7676 17.9423 41.7817 17.8861 42.1326 17.844C43.1153 17.7458 43.4102 17.6194 44.0138 17.1C45.9933 15.3451 44.8 12.2005 42.1467 12.2005C40.5603 12.2005 39.3249 13.4218 39.3249 15.0082C39.3249 15.6259 39.6197 16.4682 39.9707 16.8473C40.1672 17.0719 39.9566 17.4509 37.4858 21.3537C35.9977 23.6841 34.7623 25.6355 34.7342 25.6636C34.7202 25.6917 34.6921 23.2349 34.7061 20.1885V14.6572L35.366 14.2361C36.8681 13.2814 37.1208 11.1335 35.8714 9.91214C35.2537 9.29444 34.6921 9.05578 33.8498 9.05578C31.8282 9.04174 30.5086 11.0352 31.2386 12.9726C31.4632 13.5341 32.1792 14.3343 32.5863 14.4747C32.7126 14.5169 32.0809 16.2296 30.6068 19.8235C29.4276 22.7295 28.4168 25.074 28.3606 25.0038C28.3185 24.9476 27.7429 22.2522 27.1112 19.0233L25.946 13.1411L26.2408 12.9164C26.3952 12.7901 26.69 12.5795 26.8725 12.4532C27.785 11.8214 28.0799 10.0806 27.4902 8.95751C26.8866 7.82037 25.3002 7.18863 24.149 7.60979ZM25.5669 9.18213C26.3391 9.58925 26.5075 10.5018 25.9319 11.1756C25.6652 11.4845 25.4827 11.5687 25.0054 11.5687C24.5281 11.5687 24.3456 11.4845 24.0788 11.1756C23.5173 10.5158 23.6717 9.58925 24.4157 9.19617C24.9071 8.92943 25.0615 8.92943 25.5669 9.18213ZM17.0594 10.4597C17.8597 11.2739 17.2981 12.6216 16.161 12.6216C15.2344 12.6216 14.6167 11.5828 15.0659 10.7545C15.4731 9.99638 16.4417 9.85599 17.0594 10.4597ZM34.3411 10.7124C34.8886 10.951 35.1133 11.302 35.1133 11.9197C35.1133 12.5233 34.4534 13.1832 33.8498 13.1832C33.2461 13.1832 32.5863 12.5233 32.5863 11.9197C32.5863 11.316 32.8109 10.951 33.3303 10.7264C33.8919 10.4737 33.7796 10.4877 34.3411 10.7124ZM8.77659 14.1799C9.26795 14.7555 9.25391 15.3451 8.73448 15.8646C7.89215 16.7069 6.61463 16.1875 6.61463 15.0082C6.61463 14.222 7.09194 13.7447 7.86408 13.7447C8.31331 13.7447 8.48178 13.829 8.77659 14.1799ZM43.0452 14.0957C43.5505 14.587 43.5365 15.4574 43.0311 15.9207C42.4976 16.4121 41.8097 16.398 41.2763 15.8646C40.7568 15.3451 40.7428 14.7555 41.2342 14.1799C41.7115 13.6043 42.5257 13.5622 43.0452 14.0957ZM26.1144 21.9153C26.69 24.7932 27.1814 27.264 27.2235 27.3904C27.2797 27.629 27.1112 27.6431 25.0054 27.6431C22.8996 27.6431 22.7311 27.629 22.7873 27.3904C22.8294 27.264 23.3207 24.7932 23.8963 21.9153C24.4579 19.0514 24.9633 16.6929 25.0054 16.6929C25.0475 16.6929 25.5529 19.0514 26.1144 21.9153ZM20.6674 27.6571C20.5411 27.6992 19.6707 27.7835 18.7301 27.8396L17.0033 27.9379V22.8418L17.0173 17.7458L18.9406 22.6593C20.5411 26.7165 20.8359 27.5869 20.6674 27.6571ZM33.0075 23.0805V27.9238L32.4178 27.8537C32.0809 27.8115 31.2105 27.7554 30.4664 27.6992L29.1187 27.615L31.028 22.9261C32.0809 20.3429 32.9513 18.2371 32.9794 18.2371C32.9934 18.2371 33.0075 20.4131 33.0075 23.0805ZM12.7636 24.6247L14.9958 28.1344L13.3111 28.3731C12.3845 28.5135 11.6124 28.6117 11.5984 28.5837C11.5001 28.4433 10.3349 20.9185 10.4191 21.0027C10.4893 21.0729 11.5422 22.7014 12.7636 24.6247ZM39.0722 24.723C38.7212 26.8288 38.4264 28.5696 38.4264 28.5837C38.3983 28.6258 35.6187 28.1765 35.3519 28.0783C35.1413 28.0081 35.4081 27.5167 37.1489 24.7651C39.7601 20.6518 39.6057 20.9045 39.6618 20.9045C39.6759 20.9045 39.4091 22.6312 39.0722 24.723ZM30.1295 29.3277C32.5161 29.4821 35.3098 29.777 37.1208 30.0437L38.2018 30.1981L37.9631 30.5912C37.8227 30.8018 37.3173 31.3914 36.84 31.9109L35.9696 32.8374L35.2958 32.7111C31.7299 32.0512 18.2808 32.0512 14.715 32.7111L14.0411 32.8374L13.1707 31.9109C12.6934 31.3914 12.188 30.8018 12.0476 30.5912L11.809 30.1981L12.8899 30.0437C18 29.2856 24.9352 28.9908 30.1295 29.3277ZM32.3757 33.9745C33.3865 34.0447 34.3973 34.143 34.65 34.1851C35.0712 34.2694 35.0852 34.2834 34.9448 34.6765C34.8746 34.9011 34.8325 35.3784 34.8606 35.7294L34.9027 36.3752L33.9902 36.2909C33.4848 36.2488 32.3196 36.1365 31.393 36.0382C30.4664 35.954 27.5885 35.8698 25.0054 35.8698C22.4222 35.8698 19.5443 35.954 18.6177 36.0382C17.6912 36.1365 16.526 36.2488 16.0206 36.2909L15.1081 36.3752L15.1502 35.7294C15.1783 35.3784 15.1361 34.9011 15.0659 34.6765C14.9396 34.2974 14.9536 34.2694 15.3186 34.1992C15.8521 34.0869 19.5583 33.8201 21.3553 33.764C23.6577 33.6938 30.3541 33.8201 32.3757 33.9745ZM28.866 37.4702C31.5053 37.6106 35.029 37.9475 35.5765 38.116C35.9275 38.2283 36.2364 38.9021 36.2364 39.576C36.2364 39.941 36.3627 40.3762 36.5873 40.7553C37.1208 41.6537 36.9383 41.8082 35.029 42.0328C29.5258 42.7066 20.5551 42.7066 14.9817 42.0328C12.8057 41.766 12.4267 41.4572 13.0724 40.4885C13.2269 40.2499 13.3532 39.9551 13.3532 39.8147C13.3532 39.4216 13.8867 38.481 14.2377 38.2564C14.8133 37.8773 20.1901 37.4 24.514 37.3579C25.3704 37.3438 27.3218 37.4 28.866 37.4702Z" fill="black"/>
<path d="M8.77659 14.1799C9.26795 14.7555 9.25391 15.3451 8.73448 15.8646C7.89215 16.7069 6.61463 16.1875 6.61463 15.0082C6.61463 14.222 7.09194 13.7447 7.86408 13.7447C8.31331 13.7447 8.48178 13.829 8.77659 14.1799Z" fill="black"/>
<path d="M8.77659 14.1799C9.26795 14.7555 9.25391 15.3451 8.73448 15.8646C7.89215 16.7069 6.61463 16.1875 6.61463 15.0082C6.61463 14.222 7.09194 13.7447 7.86408 13.7447C8.31331 13.7447 8.48178 13.829 8.77659 14.1799Z" fill="#f5f1f1"/>
<path d="M17.0594 10.4597C17.8597 11.2739 17.2981 12.6216 16.161 12.6216C15.2344 12.6216 14.6167 11.5828 15.0659 10.7545C15.4731 9.99638 16.4417 9.85599 17.0594 10.4597Z" fill="black"/>
<path d="M17.0594 10.4597C17.8597 11.2739 17.2981 12.6216 16.161 12.6216C15.2344 12.6216 14.6167 11.5828 15.0659 10.7545C15.4731 9.99638 16.4417 9.85599 17.0594 10.4597Z" fill="#f5f1f1"/>
<path d="M25.5669 9.18213C26.3391 9.58925 26.5075 10.5018 25.9319 11.1756C25.6652 11.4845 25.4827 11.5687 25.0054 11.5687C24.5281 11.5687 24.3456 11.4845 24.0788 11.1756C23.5173 10.5158 23.6717 9.58925 24.4157 9.19617C24.9071 8.92943 25.0615 8.92943 25.5669 9.18213Z" fill="black"/>
<path d="M25.5669 9.18213C26.3391 9.58925 26.5075 10.5018 25.9319 11.1756C25.6652 11.4845 25.4827 11.5687 25.0054 11.5687C24.5281 11.5687 24.3456 11.4845 24.0788 11.1756C23.5173 10.5158 23.6717 9.58925 24.4157 9.19617C24.9071 8.92943 25.0615 8.92943 25.5669 9.18213Z" fill="#f5f1f1"/>
<path d="M34.3411 10.7124C34.8886 10.951 35.1133 11.302 35.1133 11.9197C35.1133 12.5233 34.4534 13.1832 33.8498 13.1832C33.2461 13.1832 32.5863 12.5233 32.5863 11.9197C32.5863 11.316 32.8109 10.951 33.3303 10.7264C33.8919 10.4737 33.7796 10.4877 34.3411 10.7124Z" fill="black"/>
<path d="M34.3411 10.7124C34.8886 10.951 35.1133 11.302 35.1133 11.9197C35.1133 12.5233 34.4534 13.1832 33.8498 13.1832C33.2461 13.1832 32.5863 12.5233 32.5863 11.9197C32.5863 11.316 32.8109 10.951 33.3303 10.7264C33.8919 10.4737 33.7796 10.4877 34.3411 10.7124Z" fill="#f5f1f1"/>
<path d="M43.0452 14.0957C43.5505 14.587 43.5365 15.4574 43.0311 15.9207C42.4976 16.4121 41.8097 16.398 41.2763 15.8646C40.7568 15.3451 40.7428 14.7555 41.2342 14.1799C41.7115 13.6043 42.5257 13.5622 43.0452 14.0957Z" fill="black"/>
<path d="M43.0452 14.0957C43.5505 14.587 43.5365 15.4574 43.0311 15.9207C42.4976 16.4121 41.8097 16.398 41.2763 15.8646C40.7568 15.3451 40.7428 14.7555 41.2342 14.1799C41.7115 13.6043 42.5257 13.5622 43.0452 14.0957Z" fill="#f5f1f1"/>
<path d="M12.7636 24.6247L14.9958 28.1344L13.3111 28.3731C12.3845 28.5135 11.6124 28.6117 11.5984 28.5837C11.5001 28.4433 10.3349 20.9185 10.4191 21.0027C10.4893 21.0729 11.5422 22.7014 12.7636 24.6247Z" fill="black"/>
<path d="M12.7636 24.6247L14.9958 28.1344L13.3111 28.3731C12.3845 28.5135 11.6124 28.6117 11.5984 28.5837C11.5001 28.4433 10.3349 20.9185 10.4191 21.0027C10.4893 21.0729 11.5422 22.7014 12.7636 24.6247Z" fill="#f5f1f1"/>
<path d="M20.6674 27.6571C20.5411 27.6992 19.6707 27.7835 18.7301 27.8396L17.0033 27.9379V22.8418L17.0173 17.7458L18.9406 22.6593C20.5411 26.7165 20.8359 27.5869 20.6674 27.6571Z" fill="black"/>
<path d="M20.6674 27.6571C20.5411 27.6992 19.6707 27.7835 18.7301 27.8396L17.0033 27.9379V22.8418L17.0173 17.7458L18.9406 22.6593C20.5411 26.7165 20.8359 27.5869 20.6674 27.6571Z" fill="#f5f1f1"/>
<path d="M26.1144 21.9153C26.69 24.7932 27.1814 27.264 27.2235 27.3904C27.2797 27.629 27.1112 27.6431 25.0054 27.6431C22.8996 27.6431 22.7311 27.629 22.7873 27.3904C22.8294 27.264 23.3207 24.7932 23.8963 21.9153C24.4579 19.0514 24.9633 16.6929 25.0054 16.6929C25.0475 16.6929 25.5529 19.0514 26.1144 21.9153Z" fill="black"/>
<path d="M26.1144 21.9153C26.69 24.7932 27.1814 27.264 27.2235 27.3904C27.2797 27.629 27.1112 27.6431 25.0054 27.6431C22.8996 27.6431 22.7311 27.629 22.7873 27.3904C22.8294 27.264 23.3207 24.7932 23.8963 21.9153C24.4579 19.0514 24.9633 16.6929 25.0054 16.6929C25.0475 16.6929 25.5529 19.0514 26.1144 21.9153Z" fill="#f5f1f1"/>
<path d="M33.0075 23.0805V27.9238L32.4178 27.8537C32.0809 27.8115 31.2105 27.7554 30.4664 27.6992L29.1187 27.615L31.028 22.9261C32.0809 20.3429 32.9513 18.2371 32.9794 18.2371C32.9934 18.2371 33.0075 20.4131 33.0075 23.0805Z" fill="black"/>
<path d="M33.0075 23.0805V27.9238L32.4178 27.8537C32.0809 27.8115 31.2105 27.7554 30.4664 27.6992L29.1187 27.615L31.028 22.9261C32.0809 20.3429 32.9513 18.2371 32.9794 18.2371C32.9934 18.2371 33.0075 20.4131 33.0075 23.0805Z" fill="#f5f1f1"/>
<path d="M39.0722 24.723C38.7212 26.8288 38.4264 28.5696 38.4264 28.5837C38.3983 28.6258 35.6187 28.1765 35.3519 28.0783C35.1413 28.0081 35.4081 27.5167 37.1489 24.7651C39.7601 20.6518 39.6057 20.9045 39.6618 20.9045C39.6759 20.9045 39.4091 22.6312 39.0722 24.723Z" fill="black"/>
<path d="M39.0722 24.723C38.7212 26.8288 38.4264 28.5696 38.4264 28.5837C38.3983 28.6258 35.6187 28.1765 35.3519 28.0783C35.1413 28.0081 35.4081 27.5167 37.1489 24.7651C39.7601 20.6518 39.6057 20.9045 39.6618 20.9045C39.6759 20.9045 39.4091 22.6312 39.0722 24.723Z" fill="#f5f1f1"/>
<path d="M30.1295 29.3277C32.5161 29.4821 35.3098 29.777 37.1208 30.0437L38.2018 30.1981L37.9631 30.5912C37.8227 30.8018 37.3173 31.3914 36.84 31.9109L35.9696 32.8374L35.2958 32.7111C31.7299 32.0512 18.2808 32.0512 14.715 32.7111L14.0411 32.8374L13.1707 31.9109C12.6934 31.3914 12.188 30.8018 12.0476 30.5912L11.809 30.1981L12.8899 30.0437C18 29.2856 24.9352 28.9908 30.1295 29.3277Z" fill="black"/>
<path d="M30.1295 29.3277C32.5161 29.4821 35.3098 29.777 37.1208 30.0437L38.2018 30.1981L37.9631 30.5912C37.8227 30.8018 37.3173 31.3914 36.84 31.9109L35.9696 32.8374L35.2958 32.7111C31.7299 32.0512 18.2808 32.0512 14.715 32.7111L14.0411 32.8374L13.1707 31.9109C12.6934 31.3914 12.188 30.8018 12.0476 30.5912L11.809 30.1981L12.8899 30.0437C18 29.2856 24.9352 28.9908 30.1295 29.3277Z" fill="#f5f1f1"/>
<path d="M32.3757 33.9745C33.3865 34.0447 34.3973 34.143 34.65 34.1851C35.0712 34.2694 35.0852 34.2834 34.9448 34.6765C34.8746 34.9011 34.8325 35.3784 34.8606 35.7294L34.9027 36.3752L33.9902 36.2909C33.4848 36.2488 32.3196 36.1365 31.393 36.0382C30.4664 35.954 27.5885 35.8698 25.0054 35.8698C22.4222 35.8698 19.5443 35.954 18.6177 36.0382C17.6912 36.1365 16.526 36.2488 16.0206 36.2909L15.1081 36.3752L15.1502 35.7294C15.1783 35.3784 15.1361 34.9011 15.0659 34.6765C14.9396 34.2974 14.9536 34.2694 15.3186 34.1992C15.8521 34.0869 19.5583 33.8201 21.3553 33.764C23.6577 33.6938 30.3541 33.8201 32.3757 33.9745Z" fill="black"/>
<path d="M32.3757 33.9745C33.3865 34.0447 34.3973 34.143 34.65 34.1851C35.0712 34.2694 35.0852 34.2834 34.9448 34.6765C34.8746 34.9011 34.8325 35.3784 34.8606 35.7294L34.9027 36.3752L33.9902 36.2909C33.4848 36.2488 32.3196 36.1365 31.393 36.0382C30.4664 35.954 27.5885 35.8698 25.0054 35.8698C22.4222 35.8698 19.5443 35.954 18.6177 36.0382C17.6912 36.1365 16.526 36.2488 16.0206 36.2909L15.1081 36.3752L15.1502 35.7294C15.1783 35.3784 15.1361 34.9011 15.0659 34.6765C14.9396 34.2974 14.9536 34.2694 15.3186 34.1992C15.8521 34.0869 19.5583 33.8201 21.3553 33.764C23.6577 33.6938 30.3541 33.8201 32.3757 33.9745Z" fill="#f5f1f1"/>
<path d="M28.866 37.4702C31.5053 37.6106 35.029 37.9475 35.5765 38.116C35.9275 38.2283 36.2364 38.9021 36.2364 39.576C36.2364 39.941 36.3627 40.3762 36.5873 40.7553C37.1208 41.6537 36.9383 41.8082 35.029 42.0328C29.5258 42.7066 20.5551 42.7066 14.9817 42.0328C12.8057 41.766 12.4267 41.4572 13.0724 40.4885C13.2269 40.2499 13.3532 39.9551 13.3532 39.8147C13.3532 39.4216 13.8867 38.481 14.2377 38.2564C14.8133 37.8773 20.1901 37.4 24.514 37.3579C25.3704 37.3438 27.3218 37.4 28.866 37.4702Z" fill="black"/>
<path d="M28.866 37.4702C31.5053 37.6106 35.029 37.9475 35.5765 38.116C35.9275 38.2283 36.2364 38.9021 36.2364 39.576C36.2364 39.941 36.3627 40.3762 36.5873 40.7553C37.1208 41.6537 36.9383 41.8082 35.029 42.0328C29.5258 42.7066 20.5551 42.7066 14.9817 42.0328C12.8057 41.766 12.4267 41.4572 13.0724 40.4885C13.2269 40.2499 13.3532 39.9551 13.3532 39.8147C13.3532 39.4216 13.8867 38.481 14.2377 38.2564C14.8133 37.8773 20.1901 37.4 24.514 37.3579C25.3704 37.3438 27.3218 37.4 28.866 37.4702Z" fill="#f5f1f1"/>
</svg>
