<svg width="50" height="50" viewBox="0 0 50 50" fill="none" xmlns="http://www.w3.org/2000/svg">
<path d="M24.2387 5.32347C24.0845 5.53943 23.9919 6.00221 23.9919 6.48042V7.298H22.7887C21.4775 7.298 21.2152 7.42141 21.2152 8.0693C21.2152 8.76347 21.6317 8.99487 22.8812 8.99487H23.9919V10.4603V11.9104L23.344 12.2035C22.5264 12.5583 21.3849 13.7769 20.7987 14.8722C20.4131 15.6281 20.3668 15.844 20.3668 17.3558C20.3668 18.4048 20.3051 18.9601 20.2125 18.8984C20.1354 18.8521 19.7652 18.6053 19.3949 18.3585C18.4231 17.7106 16.8651 17.0318 15.5384 16.6925C14.2581 16.3685 12.0213 16.3068 10.8952 16.5691C8.3499 17.1552 5.97429 19.608 5.18756 22.4927C4.74021 24.1432 5.11043 26.5343 6.11313 28.2466C6.77645 29.4035 8.65842 31.3318 10.0776 32.3036C10.7255 32.751 11.3117 33.1983 11.3734 33.2755C11.4351 33.368 11.4814 35.2654 11.4814 37.5022C11.466 41.1582 11.4968 41.5901 11.7282 41.8523C12.1139 42.2843 14.582 43.4412 16.0629 43.9194C18.9167 44.7987 20.5365 45.0147 24.3776 44.9992C27.6325 44.9992 28.0952 44.9684 29.9155 44.5827C32.0597 44.12 34.3736 43.3332 35.7157 42.5774C37.2275 41.7443 37.104 42.1609 37.104 37.749V33.8616L38.369 33.0132C42.5494 30.2211 44.6628 27.2284 44.6628 24.1124C44.6628 22.0761 43.8452 20.3639 42.1175 18.7287C40.3898 17.109 38.4924 16.3994 35.9317 16.3994C34.0497 16.3994 32.214 16.8621 30.548 17.7723L29.4682 18.3739L29.4527 17.1861C29.4527 16.2605 29.3602 15.8132 29.0517 15.1653C28.45 13.8541 27.5399 12.8205 26.5526 12.296L25.6888 11.8487V10.4141V8.99487H26.8457C27.8021 8.99487 28.0644 8.93316 28.3112 8.68634C28.6814 8.31612 28.6969 8.10016 28.3729 7.63737C28.1724 7.32885 28.0027 7.298 26.9074 7.298H25.6888V6.40329C25.6888 5.72455 25.6116 5.43145 25.4111 5.24634C25.01 4.89154 24.5164 4.92239 24.2387 5.32347ZM25.8276 13.8541C26.3675 14.1317 26.9846 14.8413 27.4165 15.6898C27.6633 16.168 27.7404 16.5999 27.7404 17.4021C27.725 19.0064 27.3856 20.0708 26.5835 21.058C26.1978 21.5208 25.6579 22.2921 25.3648 22.7703C25.0717 23.2485 24.8095 23.6496 24.7478 23.6496C24.7015 23.6496 24.3621 23.2331 23.9765 22.7086C23.6063 22.1996 23.1435 21.5825 22.9738 21.3357C22.5419 20.7495 21.9865 18.4973 21.9865 17.3095C21.9865 16.5382 22.0791 16.1988 22.4802 15.4275C23.3286 13.8386 24.6398 13.2216 25.8276 13.8541ZM15.0911 18.343C18.3614 19.1915 21.4158 21.6134 23.4366 24.9762L23.9919 25.8864V27.8301V29.7737L21.7243 29.9434C18.5157 30.2057 15.7081 30.8381 13.2554 31.8408C12.7926 32.0259 12.7155 31.9951 11.4197 31.1467C9.53771 29.8817 8.08766 28.37 7.37806 26.9199C6.82272 25.8093 6.79187 25.6704 6.79187 24.2666C6.79187 22.9554 6.85358 22.6932 7.28551 21.7676C7.79456 20.6724 8.93609 19.3149 9.72282 18.8984C11.2037 18.0808 13.2708 17.8648 15.0911 18.343ZM37.9679 18.3122C39.8345 18.8058 41.6393 20.2559 42.4415 21.891C42.8271 22.6778 42.8888 22.9863 42.8888 24.1278C42.8888 25.3465 42.8425 25.5316 42.2872 26.6731C41.5313 28.1849 39.6802 30.0977 37.7057 31.4089L36.379 32.2882L35.037 31.7328C33.263 31.0078 30.6251 30.3445 28.6197 30.1285C27.725 30.036 26.7069 29.928 26.3521 29.8817L25.6888 29.8046V27.8763C25.6888 26.0869 25.7196 25.8864 26.1361 24.9762C27.617 21.7213 30.4708 19.2069 33.7103 18.343C34.7901 18.05 36.9498 18.0345 37.9679 18.3122ZM28.9591 31.9025C30.9028 32.1956 32.6305 32.643 34.1731 33.2446L35.4072 33.7228V34.7872C35.4072 35.5894 35.3609 35.8362 35.2221 35.7745C32.4145 34.6329 27.9718 33.8308 24.3004 33.8308C20.629 33.8308 16.1863 34.6329 13.3942 35.7745C13.24 35.8362 13.1937 35.5894 13.1937 34.7872V33.692L14.4278 33.2292C16.0166 32.6121 18.3306 32.0568 20.1663 31.8408C20.953 31.7483 21.8477 31.6403 22.1408 31.6094C23.1743 31.486 27.4782 31.6711 28.9591 31.9025ZM29.0054 35.9133C30.9491 36.2064 32.6459 36.6383 34.204 37.2399L35.4072 37.7027V38.798C35.4072 39.6001 35.3609 39.8469 35.2221 39.8007C34.0188 39.2916 31.381 38.5666 29.7767 38.2889C28.0798 37.9804 27.2314 37.9341 24.3004 37.9341C21.3695 37.9341 20.5211 37.9804 18.8242 38.2889C17.2199 38.5666 14.582 39.2916 13.3942 39.8007C13.24 39.8469 13.1937 39.6001 13.1937 38.798V37.7027L14.3969 37.2399C16.4177 36.4686 19.179 35.867 21.8323 35.6202C23.1589 35.4968 27.4782 35.6665 29.0054 35.9133ZM27.2314 39.7081C28.2032 39.8007 29.6687 40.0012 30.4708 40.1709C32.2603 40.5411 34.4045 41.2353 34.2194 41.3896C34.0034 41.5747 32.106 42.2843 31.0725 42.5465C27.0925 43.58 22.3105 43.6572 18.3614 42.747C16.9422 42.4231 14.6129 41.6364 14.3661 41.3896C14.3044 41.3124 14.8751 41.0502 15.6773 40.8034C19.0402 39.7235 23.2052 39.3225 27.2314 39.7081Z" fill="black"/>
<path d="M15.0911 18.343C18.3614 19.1915 21.4158 21.6134 23.4366 24.9762L23.9919 25.8864V27.8301V29.7737L21.7243 29.9434C18.5157 30.2057 15.7081 30.8381 13.2554 31.8408C12.7926 32.0259 12.7155 31.9951 11.4197 31.1467C9.53771 29.8817 8.08766 28.37 7.37806 26.9199C6.82272 25.8093 6.79187 25.6704 6.79187 24.2666C6.79187 22.9554 6.85358 22.6932 7.28551 21.7676C7.79456 20.6724 8.93609 19.3149 9.72282 18.8984C11.2037 18.0808 13.2708 17.8648 15.0911 18.343Z" fill="black"/>
<path d="M15.0911 18.343C18.3614 19.1915 21.4158 21.6134 23.4366 24.9762L23.9919 25.8864V27.8301V29.7737L21.7243 29.9434C18.5157 30.2057 15.7081 30.8381 13.2554 31.8408C12.7926 32.0259 12.7155 31.9951 11.4197 31.1467C9.53771 29.8817 8.08766 28.37 7.37806 26.9199C6.82272 25.8093 6.79187 25.6704 6.79187 24.2666C6.79187 22.9554 6.85358 22.6932 7.28551 21.7676C7.79456 20.6724 8.93609 19.3149 9.72282 18.8984C11.2037 18.0808 13.2708 17.8648 15.0911 18.343Z" fill="#f5f1f1"/>
<path d="M37.9679 18.3122C39.8345 18.8058 41.6393 20.2559 42.4415 21.891C42.8271 22.6778 42.8888 22.9863 42.8888 24.1278C42.8888 25.3465 42.8425 25.5316 42.2872 26.6731C41.5313 28.1849 39.6802 30.0977 37.7057 31.4089L36.379 32.2882L35.037 31.7328C33.263 31.0078 30.6251 30.3445 28.6197 30.1285C27.725 30.036 26.7069 29.928 26.3521 29.8817L25.6888 29.8046V27.8763C25.6888 26.0869 25.7196 25.8864 26.1361 24.9762C27.617 21.7213 30.4708 19.2069 33.7103 18.343C34.7901 18.05 36.9498 18.0345 37.9679 18.3122Z" fill="black"/>
<path d="M37.9679 18.3122C39.8345 18.8058 41.6393 20.2559 42.4415 21.891C42.8271 22.6778 42.8888 22.9863 42.8888 24.1278C42.8888 25.3465 42.8425 25.5316 42.2872 26.6731C41.5313 28.1849 39.6802 30.0977 37.7057 31.4089L36.379 32.2882L35.037 31.7328C33.263 31.0078 30.6251 30.3445 28.6197 30.1285C27.725 30.036 26.7069 29.928 26.3521 29.8817L25.6888 29.8046V27.8763C25.6888 26.0869 25.7196 25.8864 26.1361 24.9762C27.617 21.7213 30.4708 19.2069 33.7103 18.343C34.7901 18.05 36.9498 18.0345 37.9679 18.3122Z" fill="#f5f1f1"/>
<path d="M25.8276 13.8541C26.3675 14.1317 26.9846 14.8413 27.4165 15.6898C27.6633 16.168 27.7404 16.5999 27.7404 17.4021C27.725 19.0064 27.3856 20.0708 26.5835 21.058C26.1978 21.5208 25.6579 22.2921 25.3648 22.7703C25.0717 23.2485 24.8095 23.6496 24.7478 23.6496C24.7015 23.6496 24.3621 23.2331 23.9765 22.7086C23.6063 22.1996 23.1435 21.5825 22.9738 21.3357C22.5419 20.7495 21.9865 18.4973 21.9865 17.3095C21.9865 16.5382 22.0791 16.1988 22.4802 15.4275C23.3286 13.8386 24.6398 13.2216 25.8276 13.8541Z" fill="black"/>
<path d="M25.8276 13.8541C26.3675 14.1317 26.9846 14.8413 27.4165 15.6898C27.6633 16.168 27.7404 16.5999 27.7404 17.4021C27.725 19.0064 27.3856 20.0708 26.5835 21.058C26.1978 21.5208 25.6579 22.2921 25.3648 22.7703C25.0717 23.2485 24.8095 23.6496 24.7478 23.6496C24.7015 23.6496 24.3621 23.2331 23.9765 22.7086C23.6063 22.1996 23.1435 21.5825 22.9738 21.3357C22.5419 20.7495 21.9865 18.4973 21.9865 17.3095C21.9865 16.5382 22.0791 16.1988 22.4802 15.4275C23.3286 13.8386 24.6398 13.2216 25.8276 13.8541Z" fill="#f5f1f1"/>
<path d="M28.9591 31.9025C30.9028 32.1956 32.6305 32.643 34.1731 33.2446L35.4072 33.7228V34.7872C35.4072 35.5894 35.3609 35.8362 35.2221 35.7745C32.4145 34.6329 27.9718 33.8308 24.3004 33.8308C20.629 33.8308 16.1863 34.6329 13.3942 35.7745C13.24 35.8362 13.1937 35.5894 13.1937 34.7872V33.692L14.4278 33.2292C16.0166 32.6121 18.3306 32.0568 20.1663 31.8408C20.953 31.7483 21.8477 31.6403 22.1408 31.6094C23.1743 31.486 27.4782 31.6711 28.9591 31.9025Z" fill="black"/>
<path d="M28.9591 31.9025C30.9028 32.1956 32.6305 32.643 34.1731 33.2446L35.4072 33.7228V34.7872C35.4072 35.5894 35.3609 35.8362 35.2221 35.7745C32.4145 34.6329 27.9718 33.8308 24.3004 33.8308C20.629 33.8308 16.1863 34.6329 13.3942 35.7745C13.24 35.8362 13.1937 35.5894 13.1937 34.7872V33.692L14.4278 33.2292C16.0166 32.6121 18.3306 32.0568 20.1663 31.8408C20.953 31.7483 21.8477 31.6403 22.1408 31.6094C23.1743 31.486 27.4782 31.6711 28.9591 31.9025Z" fill="#f5f1f1"/>
<path d="M29.0054 35.9133C30.9491 36.2064 32.6459 36.6383 34.204 37.2399L35.4072 37.7027V38.798C35.4072 39.6001 35.3609 39.8469 35.2221 39.8007C34.0188 39.2916 31.381 38.5666 29.7767 38.2889C28.0798 37.9804 27.2314 37.9341 24.3004 37.9341C21.3695 37.9341 20.5211 37.9804 18.8242 38.2889C17.2199 38.5666 14.582 39.2916 13.3942 39.8007C13.24 39.8469 13.1937 39.6001 13.1937 38.798V37.7027L14.3969 37.2399C16.4177 36.4686 19.179 35.867 21.8323 35.6202C23.1589 35.4968 27.4782 35.6665 29.0054 35.9133Z" fill="black"/>
<path d="M29.0054 35.9133C30.9491 36.2064 32.6459 36.6383 34.204 37.2399L35.4072 37.7027V38.798C35.4072 39.6001 35.3609 39.8469 35.2221 39.8007C34.0188 39.2916 31.381 38.5666 29.7767 38.2889C28.0798 37.9804 27.2314 37.9341 24.3004 37.9341C21.3695 37.9341 20.5211 37.9804 18.8242 38.2889C17.2199 38.5666 14.582 39.2916 13.3942 39.8007C13.24 39.8469 13.1937 39.6001 13.1937 38.798V37.7027L14.3969 37.2399C16.4177 36.4686 19.179 35.867 21.8323 35.6202C23.1589 35.4968 27.4782 35.6665 29.0054 35.9133Z" fill="#f5f1f1"/>
<path d="M27.2314 39.7081C28.2032 39.8007 29.6687 40.0012 30.4708 40.1709C32.2603 40.5411 34.4045 41.2353 34.2194 41.3896C34.0034 41.5747 32.106 42.2843 31.0725 42.5465C27.0925 43.58 22.3105 43.6572 18.3614 42.747C16.9422 42.4231 14.6129 41.6364 14.3661 41.3896C14.3044 41.3124 14.8751 41.0502 15.6773 40.8034C19.0402 39.7235 23.2052 39.3225 27.2314 39.7081Z" fill="black"/>
<path d="M27.2314 39.7081C28.2032 39.8007 29.6687 40.0012 30.4708 40.1709C32.2603 40.5411 34.4045 41.2353 34.2194 41.3896C34.0034 41.5747 32.106 42.2843 31.0725 42.5465C27.0925 43.58 22.3105 43.6572 18.3614 42.747C16.9422 42.4231 14.6129 41.6364 14.3661 41.3896C14.3044 41.3124 14.8751 41.0502 15.6773 40.8034C19.0402 39.7235 23.2052 39.3225 27.2314 39.7081Z" fill="#f5f1f1"/>
</svg>
